<svg width="382" height="108" viewBox="0 0 382 108" xmlns="http://www.w3.org/2000/svg">
<g fill="#111111">
<path transform="translate(14,74.6) scale(0.07,-0.07)" d="M67.5 0V706H225V0ZM188 276.5V412H541V276.5ZM188 570.5V706H557V570.5Z"/>
<path transform="translate(55.300000000000004,74.6) scale(0.07,-0.07)" d="M54 0V486H207V0ZM130.5 553Q95 553 71.5 577.25Q48 601.5 48 637Q48 672.5 71.5 696.75Q95 721 130.5 721Q167 721 190.0 696.75Q213 672.5 213 637Q213 601.5 190.0 577.25Q167 553 130.5 553Z"/>
<path transform="translate(73.57000000000001,74.6) scale(0.07,-0.07)" d="M375 0V276.5Q375 315 351.5 338.25Q328 361.5 291.6224489795918 361.5Q266.8724489795918 361.5 247.6862244897959 351.0Q228.5 340.5 217.75 321.25Q207 302 207 276.5L147.5 305.5Q147.5 363 172.75 405.75Q198 448.5 242.44796954314722 472.25Q286.89593908629445 496 343.1979695431472 496Q396.5 496 438.25 470.5Q480 445 504.0 403.0Q528 361 528 311V0ZM54 0V486H207V0Z"/>
<path transform="translate(113.61000000000001,74.6) scale(0.07,-0.07)" d="M257 -10Q190 -10 137.25 23.0Q84.5 56 54.25 113.0Q24 170 24 242.5Q24 315.5 54.25 372.75Q84.5 430 137.25 463.0Q190 496 257 496Q306 496 345.5 477.0Q385 458 409.75 424.5Q434.5 391 438 348V138Q434.5 95 410.0 61.5Q385.5 28 345.75 9.0Q306 -10 257 -10ZM288 128Q337 128 367.0 160.25Q397 192.5 397 243Q397 277 383.5 302.75Q370 328.5 345.5 343.25Q321 358 288.5 358Q256.5 358 232.0 343.25Q207.5 328.5 193.25 302.5Q179 276.5 179 243Q179 209.5 193.0 183.5Q207 157.5 231.75 142.75Q256.5 128 288 128ZM390.5 0V130.5L413.5 249L390.5 366.5V486H541V0Z"/>
<path transform="translate(155.26000000000002,74.6) scale(0.07,-0.07)" d="M375 0V276.5Q375 315 351.5 338.25Q328 361.5 291.6224489795918 361.5Q266.8724489795918 361.5 247.6862244897959 351.0Q228.5 340.5 217.75 321.25Q207 302 207 276.5L147.5 305.5Q147.5 363 172.75 405.75Q198 448.5 242.44796954314722 472.25Q286.89593908629445 496 343.1979695431472 496Q396.5 496 438.25 470.5Q480 445 504.0 403.0Q528 361 528 311V0ZM54 0V486H207V0Z"/>
<path transform="translate(195.3,74.6) scale(0.07,-0.07)" d="M289 -11Q213.5 -11 152.75 22.0Q92 55 57.0 112.75Q22 170.5 22 242.5Q22 315.5 57.25 373.0Q92.5 430.5 153.5 463.75Q214.5 497 290.5 497Q347.5 497 395.0 477.25Q442.5 457.5 479.5 419L382 321Q365 339.5 342.25 348.75Q319.5 358 290.5 358Q258 358 232.5 343.5Q207 329 192.25 303.5Q177.5 278 177.5 243.5Q177.5 209.5 192.25 183.5Q207 157.5 232.75 142.75Q258.5 128 290.5 128Q321 128 344.25 138.25Q367.5 148.5 384.5 168L482 70Q443.5 30 395.75 9.5Q348 -11 289 -11Z"/>
<path transform="translate(230.02,74.6) scale(0.07,-0.07)" d="M293.5 -11Q214.5 -11 153.25 21.5Q92 54 57.0 111.75Q22 169.5 22 243Q22 316 56.25 373.25Q90.5 430.5 149.75 463.75Q209 497 282.5 497Q354.5 497 409.75 465.75Q465 434.5 496.5 379.5Q528 324.5 528 254Q528 240.5 526.5 226.0Q525 211.5 521 193L102 191.5V296.5L456 298L390 253.5Q389 295.5 376.75 323.25Q364.5 351 341.25 365.5Q318 380 283.5 380Q247.5 380 221.0 363.5Q194.5 347 180.25 316.75Q166 286.5 166 244Q166 201 181.25 170.25Q196.5 139.5 225.0 123.25Q253.5 107 293 107Q329 107 358.0 119.25Q387 131.5 409 156.5L493 72.5Q457 31 406.0 10.0Q355 -11 293.5 -11Z"/>
</g>
<g fill="#6B2FBF">
<path transform="translate(268.38,74.6) scale(0.07,-0.07)" d="M156 0V706H311.5V0ZM19.5 572.5V706H301.5V572.5Z"/>
<path transform="translate(294.84,74.6) scale(0.07,-0.07)" d="M334.0416666666667 -11Q248.5 -11 179.99222797927462 34.989255014326645Q111.48445595854922 80.97851002865329 71.49222797927462 163.32808022922637Q31.5 245.67765042979943 31.5 354Q31.5 462.5 70.97041420118343 544.203125Q110.44082840236686 625.90625 178.4260355029586 671.453125Q246.4112426035503 717 331.93491124260356 717Q418.5 717 486.7630890052356 671.5011013215859Q555.0261780104712 626.0022026431718 594.5130890052355 544.1277533039647Q634 462.2533039647577 634 352.8678414096916Q634 244 594.5208333333333 161.95247933884298Q555.0416666666666 79.90495867768595 487.3125 34.45247933884298Q419.5833333333333 -11 334.0416666666667 -11ZM332.5534351145038 128Q377 128 409.0 153.5Q441 179 458.5 229.25Q476 279.5 476 353.46446700507613Q476 427 458.5 477.0Q441 527 408.75 552.5Q376.5 578 331.80534351145036 578Q288.5 578 256.25 552.75Q224 527.5 206.75 477.75Q189.5 428 189.5 354.21573604060916Q189.5 280 206.75 229.75Q224 179.5 256.25 153.75Q288.5 128 332.5534351145038 128Z"/>
<path transform="translate(341.46,74.6) scale(0.07,-0.07)" d="M156 0V706H311.5V0ZM19.5 572.5V706H301.5V572.5Z"/>
</g>
<rect x="14" y="84.4" width="353.9" height="3.1" rx="1.6" fill="#6B2FBF"/>
</svg>
