<svg width="187" height="108" viewBox="0 0 187 108" xmlns="http://www.w3.org/2000/svg">
<g fill="#111111">
<path transform="translate(14,74.6) scale(0.07,-0.07)" d="M67.5 0V706H180L458 272.5H400.5L678 706H790.5V0H634V441L661.5 433.5L481 152H377L197 433.5L224 441V0Z"/>
<path transform="translate(74.06,74.6) scale(0.07,-0.07)" d="M508.5 0 184.5 356Q147 398 130.0 435.5Q113 473 113 518Q113 572 140.25 617.25Q167.5 662.5 215.25 690.0Q263 717.5 325.5 717.5Q374.5 717.5 412.75 703.0Q451 688.5 478.75 666.0Q506.5 643.5 522 619L420 521.5Q400 549 378.25 562.75Q356.5 576.5 328 576.5Q298 576.5 278.25 559.0Q258.5 541.5 258.5 516Q258.5 493.5 268.25 476.5Q278 459.5 296 438.5L687.5 0ZM277 -11Q205 -11 151.5 17.5Q98 46 68.5 95.25Q39 144.5 39 206Q39 271.5 73.75 323.25Q108.5 375 178.5 407L244 307.5Q214 294 198.75 270.75Q183.5 247.5 183.5 215.5Q183.5 190 195.25 170.5Q207 151 229.0 139.75Q251 128.5 280.5 128.5Q314.5 128.5 339.25 143.25Q364 158 380.5 184L484 77.5Q466.5 55.5 435.25 35.25Q404 15 363.5 2.0Q323 -11 277 -11Z"/>
<path transform="translate(122.43,74.6) scale(0.07,-0.07)" d="M15 0 294.5 706H436.5L713.5 0H547.5L336 586H393L178 0ZM174 127.5V255.5H558.5V127.5Z"/>
</g>

<rect x="14" y="84.4" width="159.5" height="3.1" rx="1.6" fill="#6B2FBF"/>
</svg>
