<svg width="142" height="108" viewBox="0 0 142 108" xmlns="http://www.w3.org/2000/svg">
<g fill="#111111">
<path transform="translate(14,74.6) scale(0.07,-0.07)" d="M402.5 -11Q323.5 -11 256.0 16.5Q188.5 44 138.0 93.75Q87.5 143.5 59.75 210.0Q32 276.5 32 353.5Q32 431 59.75 497.25Q87.5 563.5 137.75 612.5Q188 661.5 255.25 689.25Q322.5 717 401.5 717Q485.5 717 551.0 690.0Q616.5 663 666 616L560.5 510Q533 540 493.5 557.0Q454 574 401.5 574Q355.5 574 317.25 558.5Q279 543 251.25 513.75Q223.5 484.5 208.25 443.75Q193 403 193 353.5Q193 303.5 208.25 262.75Q223.5 222 251.25 192.75Q279 163.5 317.25 147.75Q355.5 132 401.5 132Q456 132 496.0 148.75Q536 165.5 564.5 196L670.5 90Q620 42.5 554.5 15.75Q489 -11 402.5 -11Z"/>
<path transform="translate(62.230000000000004,74.6) scale(0.07,-0.07)" d="M67.5 0V706H225V0Z"/>
<path transform="translate(82.74000000000001,74.6) scale(0.07,-0.07)" d="M188 0V122H354Q399.5 122 425.5 148.75Q451.5 175.5 451.5 215Q451.5 241.5 439.75 262.75Q428 284 406.25 296.0Q384.5 308 354 308H188V427H341Q379.5 427 403.5 446.5Q427.5 466 427.5 505.5Q427.5 545 403.5 564.5Q379.5 584 341 584H188V706H370.5Q438.5 706 486.25 680.75Q534 655.5 559.0 613.75Q584 572 584 521Q584 455.5 541.75 410.5Q499.5 365.5 418 349L421.5 401.5Q511 384.5 559.5 332.5Q608 280.5 608 204.5Q608 146.5 579.25 100.25Q550.5 54 497.0 27.0Q443.5 0 369 0ZM67.5 0V706H223V0Z"/>
</g>

<rect x="14" y="84.4" width="113.6" height="3.1" rx="1.6" fill="#6B2FBF"/>
</svg>