<svg width="319" height="108" viewBox="0 0 319 108" xmlns="http://www.w3.org/2000/svg">
<g fill="#111111">
<path transform="translate(14,74.6) scale(0.07,-0.07)" d="M188 257V379H340Q369.27456647398844 379 392.8887283236994 390.9015151515151Q416.5028901734104 402.8030303030303 430.5014450867052 425.7833333333333Q444.5 448.76363636363635 444.5 481.5Q444.5 514.2363636363636 430.5014450867052 537.2166666666667Q416.5028901734104 560.1969696969697 392.8887283236994 572.0984848484849Q369.27456647398844 584 340 584H188V706H362.5Q430 706 484.0 678.75Q538 651.5 569.5 601.3475609756098Q601 551.1951219512196 601 481.5975609756098Q601 412.5 569.5 362.0Q538 311.5 484.0 284.25Q430 257 362.5 257ZM67.5 0V706H225V0Z"/>
<path transform="translate(57.96,74.6) scale(0.07,-0.07)" d="M288 -11Q212.5 -11 152.25 22.5Q92 56 57.0 114.0Q22 172 22 244Q22 316 56.75 373.0Q91.5 430 151.75 463.5Q212 497 287.5 497Q363.5 497 423.5 463.75Q483.5 430.5 518.5 373.25Q553.5 316 553.5 244Q553.5 172 518.75 114.0Q484 56 424.0 22.5Q364 -11 288 -11ZM287.5 128Q320.5 128 345.5 142.5Q370.5 157 384.25 183.25Q398 209.5 398 243.5Q398 277.5 383.75 303.25Q369.5 329 345.0 343.5Q320.5 358 287.5 358Q255.5 358 230.5 343.25Q205.5 328.5 191.5 302.75Q177.5 277 177.5 243Q177.5 209.5 191.5 183.25Q205.5 157 230.5 142.5Q255.5 128 287.5 128Z"/>
<path transform="translate(98.28,74.6) scale(0.07,-0.07)" d="M54 0V486H207V0ZM207 266.5 142.5 316.5Q161.5 402 206.99693251533742 449.0Q252.49386503067484 496 331.5 496Q366.5 496 393.25 485.5Q420 475 440 453L349 338Q339 349 324.19444444444446 354.75Q309.3888888888889 360.5 290 360.5Q252 360.5 229.5 337.125786163522Q207 313.751572327044 207 266.5Z"/>
<path transform="translate(129.36,74.6) scale(0.07,-0.07)" d="M123 0V687H276V0ZM13 356V486H386V356Z"/>
<path transform="translate(157.29000000000002,74.6) scale(0.07,-0.07)" d="M116 0V527.5Q116 587 142.25 634.25Q168.5 681.5 216.75 709.25Q265 737 331 737Q381 737 418.25 720.5Q455.5 704 483.5 675L387.5 579Q378 589 365.5 594.25Q353 599.5 336 599.5Q304.5 599.5 286.75 581.75Q269 564 269 532.5V0ZM8.5 356V486H409V356Z"/>
<path transform="translate(187.81000000000003,74.6) scale(0.07,-0.07)" d="M288 -11Q212.5 -11 152.25 22.5Q92 56 57.0 114.0Q22 172 22 244Q22 316 56.75 373.0Q91.5 430 151.75 463.5Q212 497 287.5 497Q363.5 497 423.5 463.75Q483.5 430.5 518.5 373.25Q553.5 316 553.5 244Q553.5 172 518.75 114.0Q484 56 424.0 22.5Q364 -11 288 -11ZM287.5 128Q320.5 128 345.5 142.5Q370.5 157 384.25 183.25Q398 209.5 398 243.5Q398 277.5 383.75 303.25Q369.5 329 345.0 343.5Q320.5 358 287.5 358Q255.5 358 230.5 343.25Q205.5 328.5 191.5 302.75Q177.5 277 177.5 243Q177.5 209.5 191.5 183.25Q205.5 157 230.5 142.5Q255.5 128 287.5 128Z"/>
<path transform="translate(228.13000000000005,74.6) scale(0.07,-0.07)" d="M54 0V726H207V0Z"/>
<path transform="translate(246.40000000000006,74.6) scale(0.07,-0.07)" d="M54 0V486H207V0ZM130.5 553Q95 553 71.5 577.25Q48 601.5 48 637Q48 672.5 71.5 696.75Q95 721 130.5 721Q167 721 190.0 696.75Q213 672.5 213 637Q213 601.5 190.0 577.25Q167 553 130.5 553Z"/>
<path transform="translate(264.6700000000001,74.6) scale(0.07,-0.07)" d="M288 -11Q212.5 -11 152.25 22.5Q92 56 57.0 114.0Q22 172 22 244Q22 316 56.75 373.0Q91.5 430 151.75 463.5Q212 497 287.5 497Q363.5 497 423.5 463.75Q483.5 430.5 518.5 373.25Q553.5 316 553.5 244Q553.5 172 518.75 114.0Q484 56 424.0 22.5Q364 -11 288 -11ZM287.5 128Q320.5 128 345.5 142.5Q370.5 157 384.25 183.25Q398 209.5 398 243.5Q398 277.5 383.75 303.25Q369.5 329 345.0 343.5Q320.5 358 287.5 358Q255.5 358 230.5 343.25Q205.5 328.5 191.5 302.75Q177.5 277 177.5 243Q177.5 209.5 191.5 183.25Q205.5 157 230.5 142.5Q255.5 128 287.5 128Z"/>
</g>

<rect x="14" y="84.4" width="291.0" height="3.1" rx="1.6" fill="#6B2FBF"/>
</svg>
